<mxfile host="app.diagrams.net" modified="2024-03-01T22:05:34.497Z" agent="Mozilla/5.0 (Windows NT 10.0; Win64; x64) AppleWebKit/537.36 (KHTML, like Gecko) Chrome/122.0.0.0 Safari/537.36" etag="oo1EKesYYBmvrtu9xOTf" version="23.1.6" type="device">
  <diagram id="GTeuX3tOg90Z7ziiiYhd" name="Página-1">
    <mxGraphModel dx="1434" dy="772" grid="1" gridSize="10" guides="1" tooltips="1" connect="1" arrows="1" fold="1" page="1" pageScale="1" pageWidth="827" pageHeight="1169" math="0" shadow="0">
      <root>
        <mxCell id="0" />
        <mxCell id="1" parent="0" />
        <mxCell id="LjqBi-fSDwyMDzPRDfxF-1" value="Usuário" style="swimlane;startSize=20;horizontal=0;html=1;whiteSpace=wrap;" parent="1" vertex="1">
          <mxGeometry x="20" y="20" width="830" height="150" as="geometry">
            <mxRectangle x="10" y="10" width="40" height="80" as="alternateBounds" />
          </mxGeometry>
        </mxCell>
        <mxCell id="LjqBi-fSDwyMDzPRDfxF-2" value="" style="edgeStyle=elbowEdgeStyle;fontSize=12;html=1;endArrow=blockThin;endFill=1;rounded=0;entryX=0;entryY=0.5;entryDx=0;entryDy=0;entryPerimeter=0;" parent="LjqBi-fSDwyMDzPRDfxF-1" target="LjqBi-fSDwyMDzPRDfxF-4" edge="1">
          <mxGeometry width="160" relative="1" as="geometry">
            <mxPoint x="70" y="75" as="sourcePoint" />
            <mxPoint x="140" y="75" as="targetPoint" />
          </mxGeometry>
        </mxCell>
        <mxCell id="LjqBi-fSDwyMDzPRDfxF-3" value="" style="points=[[0.145,0.145,0],[0.5,0,0],[0.855,0.145,0],[1,0.5,0],[0.855,0.855,0],[0.5,1,0],[0.145,0.855,0],[0,0.5,0]];shape=mxgraph.bpmn.event;html=1;verticalLabelPosition=bottom;labelBackgroundColor=#ffffff;verticalAlign=top;align=center;perimeter=ellipsePerimeter;outlineConnect=0;aspect=fixed;outline=standard;symbol=general;fillColor=#d5e8d4;strokeColor=#82b366;" parent="LjqBi-fSDwyMDzPRDfxF-1" vertex="1">
          <mxGeometry x="30" y="55" width="40" height="40" as="geometry" />
        </mxCell>
        <mxCell id="n9a9Hprn8gxXcafP9Far-6" style="edgeStyle=orthogonalEdgeStyle;rounded=0;orthogonalLoop=1;jettySize=auto;html=1;exitX=1;exitY=0.25;exitDx=0;exitDy=0;exitPerimeter=0;entryX=0.5;entryY=0;entryDx=0;entryDy=0;" edge="1" parent="LjqBi-fSDwyMDzPRDfxF-1" source="LjqBi-fSDwyMDzPRDfxF-4" target="LjqBi-fSDwyMDzPRDfxF-21">
          <mxGeometry relative="1" as="geometry">
            <Array as="points">
              <mxPoint x="430" y="63" />
            </Array>
          </mxGeometry>
        </mxCell>
        <mxCell id="LjqBi-fSDwyMDzPRDfxF-4" value="Inserir Login" style="points=[[0.25,0,0],[0.5,0,0],[0.75,0,0],[1,0.25,0],[1,0.5,0],[1,0.75,0],[0.75,1,0],[0.5,1,0],[0.25,1,0],[0,0.75,0],[0,0.5,0],[0,0.25,0]];shape=mxgraph.bpmn.task;whiteSpace=wrap;rectStyle=rounded;size=10;html=1;container=1;expand=0;collapsible=0;taskMarker=abstract;" parent="LjqBi-fSDwyMDzPRDfxF-1" vertex="1">
          <mxGeometry x="220" y="50" width="140" height="50" as="geometry" />
        </mxCell>
        <mxCell id="LjqBi-fSDwyMDzPRDfxF-5" value="" style="points=[[0.145,0.145,0],[0.5,0,0],[0.855,0.145,0],[1,0.5,0],[0.855,0.855,0],[0.5,1,0],[0.145,0.855,0],[0,0.5,0]];shape=mxgraph.bpmn.event;html=1;verticalLabelPosition=bottom;labelBackgroundColor=#ffffff;verticalAlign=top;align=center;perimeter=ellipsePerimeter;outlineConnect=0;aspect=fixed;outline=standard;symbol=general;fillColor=#f8cecc;strokeColor=#b85450;" parent="LjqBi-fSDwyMDzPRDfxF-1" vertex="1">
          <mxGeometry x="730" y="55" width="40" height="40" as="geometry" />
        </mxCell>
        <mxCell id="LjqBi-fSDwyMDzPRDfxF-15" value="Erro ao Logar" style="points=[[0.25,0,0],[0.5,0,0],[0.75,0,0],[1,0.25,0],[1,0.5,0],[1,0.75,0],[0.75,1,0],[0.5,1,0],[0.25,1,0],[0,0.75,0],[0,0.5,0],[0,0.25,0]];shape=mxgraph.bpmn.task;whiteSpace=wrap;rectStyle=rounded;size=10;html=1;container=1;expand=0;collapsible=0;taskMarker=abstract;" parent="LjqBi-fSDwyMDzPRDfxF-1" vertex="1">
          <mxGeometry x="500" y="10" width="140" height="50" as="geometry" />
        </mxCell>
        <mxCell id="LjqBi-fSDwyMDzPRDfxF-30" style="edgeStyle=orthogonalEdgeStyle;rounded=0;orthogonalLoop=1;jettySize=auto;html=1;dashed=1;" parent="LjqBi-fSDwyMDzPRDfxF-1" source="LjqBi-fSDwyMDzPRDfxF-27" target="LjqBi-fSDwyMDzPRDfxF-5" edge="1">
          <mxGeometry relative="1" as="geometry" />
        </mxCell>
        <mxCell id="LjqBi-fSDwyMDzPRDfxF-27" value="Login Sucedido!" style="points=[[0.25,0,0],[0.5,0,0],[0.75,0,0],[1,0.25,0],[1,0.5,0],[1,0.75,0],[0.75,1,0],[0.5,1,0],[0.25,1,0],[0,0.75,0],[0,0.5,0],[0,0.25,0]];shape=mxgraph.bpmn.task;whiteSpace=wrap;rectStyle=rounded;size=10;html=1;container=1;expand=0;collapsible=0;taskMarker=abstract;" parent="LjqBi-fSDwyMDzPRDfxF-1" vertex="1">
          <mxGeometry x="500" y="90" width="140" height="50" as="geometry" />
        </mxCell>
        <mxCell id="LjqBi-fSDwyMDzPRDfxF-28" style="edgeStyle=orthogonalEdgeStyle;rounded=0;orthogonalLoop=1;jettySize=auto;html=1;entryX=0.5;entryY=0;entryDx=0;entryDy=0;entryPerimeter=0;dashed=1;" parent="LjqBi-fSDwyMDzPRDfxF-1" source="LjqBi-fSDwyMDzPRDfxF-15" target="LjqBi-fSDwyMDzPRDfxF-5" edge="1">
          <mxGeometry relative="1" as="geometry" />
        </mxCell>
        <mxCell id="LjqBi-fSDwyMDzPRDfxF-21" value="" style="rhombus;whiteSpace=wrap;html=1;fillColor=#fff2cc;strokeColor=#d6b656;" parent="LjqBi-fSDwyMDzPRDfxF-1" vertex="1">
          <mxGeometry x="410" y="70" width="40" height="35" as="geometry" />
        </mxCell>
        <mxCell id="LjqBi-fSDwyMDzPRDfxF-26" style="edgeStyle=orthogonalEdgeStyle;rounded=0;orthogonalLoop=1;jettySize=auto;html=1;exitX=1;exitY=0.5;exitDx=0;exitDy=0;entryX=0;entryY=0.5;entryDx=0;entryDy=0;entryPerimeter=0;dashed=1;" parent="LjqBi-fSDwyMDzPRDfxF-1" source="LjqBi-fSDwyMDzPRDfxF-21" target="LjqBi-fSDwyMDzPRDfxF-15" edge="1">
          <mxGeometry relative="1" as="geometry" />
        </mxCell>
        <mxCell id="LjqBi-fSDwyMDzPRDfxF-34" value="Não" style="edgeLabel;html=1;align=center;verticalAlign=middle;resizable=0;points=[];" parent="LjqBi-fSDwyMDzPRDfxF-26" vertex="1" connectable="0">
          <mxGeometry x="-0.6148" y="2" relative="1" as="geometry">
            <mxPoint y="1" as="offset" />
          </mxGeometry>
        </mxCell>
        <mxCell id="LjqBi-fSDwyMDzPRDfxF-25" value="Dados Corretos?" style="text;html=1;align=center;verticalAlign=middle;resizable=0;points=[];autosize=1;strokeColor=none;fillColor=none;" parent="LjqBi-fSDwyMDzPRDfxF-1" vertex="1">
          <mxGeometry x="360" width="110" height="30" as="geometry" />
        </mxCell>
        <mxCell id="n9a9Hprn8gxXcafP9Far-8" style="edgeStyle=orthogonalEdgeStyle;rounded=0;orthogonalLoop=1;jettySize=auto;html=1;exitX=0.5;exitY=1;exitDx=0;exitDy=0;entryX=0;entryY=0.5;entryDx=0;entryDy=0;entryPerimeter=0;dashed=1;" edge="1" parent="LjqBi-fSDwyMDzPRDfxF-1" source="LjqBi-fSDwyMDzPRDfxF-21" target="LjqBi-fSDwyMDzPRDfxF-27">
          <mxGeometry relative="1" as="geometry">
            <Array as="points">
              <mxPoint x="430" y="115" />
            </Array>
          </mxGeometry>
        </mxCell>
        <mxCell id="n9a9Hprn8gxXcafP9Far-9" value="Sim" style="edgeLabel;html=1;align=center;verticalAlign=middle;resizable=0;points=[];" vertex="1" connectable="0" parent="n9a9Hprn8gxXcafP9Far-8">
          <mxGeometry x="-0.2" y="-2" relative="1" as="geometry">
            <mxPoint as="offset" />
          </mxGeometry>
        </mxCell>
        <mxCell id="LjqBi-fSDwyMDzPRDfxF-7" value="Servidor" style="swimlane;startSize=20;horizontal=0;html=1;whiteSpace=wrap;" parent="1" vertex="1">
          <mxGeometry x="20" y="180" width="830" height="150" as="geometry">
            <mxRectangle x="10" y="10" width="40" height="80" as="alternateBounds" />
          </mxGeometry>
        </mxCell>
        <mxCell id="LjqBi-fSDwyMDzPRDfxF-8" value="" style="edgeStyle=elbowEdgeStyle;fontSize=12;html=1;endArrow=blockThin;endFill=1;rounded=0;entryX=0;entryY=0.5;entryDx=0;entryDy=0;entryPerimeter=0;" parent="LjqBi-fSDwyMDzPRDfxF-7" target="LjqBi-fSDwyMDzPRDfxF-10" edge="1">
          <mxGeometry width="160" relative="1" as="geometry">
            <mxPoint x="70" y="75" as="sourcePoint" />
            <mxPoint x="140" y="75" as="targetPoint" />
          </mxGeometry>
        </mxCell>
        <mxCell id="LjqBi-fSDwyMDzPRDfxF-9" value="" style="points=[[0.145,0.145,0],[0.5,0,0],[0.855,0.145,0],[1,0.5,0],[0.855,0.855,0],[0.5,1,0],[0.145,0.855,0],[0,0.5,0]];shape=mxgraph.bpmn.event;html=1;verticalLabelPosition=bottom;labelBackgroundColor=#ffffff;verticalAlign=top;align=center;perimeter=ellipsePerimeter;outlineConnect=0;aspect=fixed;outline=standard;symbol=general;fillColor=#d5e8d4;strokeColor=#82b366;" parent="LjqBi-fSDwyMDzPRDfxF-7" vertex="1">
          <mxGeometry x="30" y="55" width="40" height="40" as="geometry" />
        </mxCell>
        <mxCell id="LjqBi-fSDwyMDzPRDfxF-33" style="edgeStyle=orthogonalEdgeStyle;rounded=0;orthogonalLoop=1;jettySize=auto;html=1;exitX=1;exitY=0.5;exitDx=0;exitDy=0;exitPerimeter=0;" parent="LjqBi-fSDwyMDzPRDfxF-7" source="LjqBi-fSDwyMDzPRDfxF-10" target="LjqBi-fSDwyMDzPRDfxF-11" edge="1">
          <mxGeometry relative="1" as="geometry" />
        </mxCell>
        <mxCell id="LjqBi-fSDwyMDzPRDfxF-10" value="Validar Login" style="points=[[0.25,0,0],[0.5,0,0],[0.75,0,0],[1,0.25,0],[1,0.5,0],[1,0.75,0],[0.75,1,0],[0.5,1,0],[0.25,1,0],[0,0.75,0],[0,0.5,0],[0,0.25,0]];shape=mxgraph.bpmn.task;whiteSpace=wrap;rectStyle=rounded;size=10;html=1;container=1;expand=0;collapsible=0;taskMarker=abstract;" parent="LjqBi-fSDwyMDzPRDfxF-7" vertex="1">
          <mxGeometry x="220" y="50" width="140" height="50" as="geometry" />
        </mxCell>
        <mxCell id="LjqBi-fSDwyMDzPRDfxF-11" value="" style="points=[[0.145,0.145,0],[0.5,0,0],[0.855,0.145,0],[1,0.5,0],[0.855,0.855,0],[0.5,1,0],[0.145,0.855,0],[0,0.5,0]];shape=mxgraph.bpmn.event;html=1;verticalLabelPosition=bottom;labelBackgroundColor=#ffffff;verticalAlign=top;align=center;perimeter=ellipsePerimeter;outlineConnect=0;aspect=fixed;outline=standard;symbol=general;fillColor=#f8cecc;strokeColor=#b85450;" parent="LjqBi-fSDwyMDzPRDfxF-7" vertex="1">
          <mxGeometry x="730" y="55" width="40" height="40" as="geometry" />
        </mxCell>
        <mxCell id="LjqBi-fSDwyMDzPRDfxF-13" style="edgeStyle=orthogonalEdgeStyle;rounded=0;orthogonalLoop=1;jettySize=auto;html=1;entryX=0.5;entryY=0;entryDx=0;entryDy=0;entryPerimeter=0;dashed=1;" parent="1" source="LjqBi-fSDwyMDzPRDfxF-4" target="LjqBi-fSDwyMDzPRDfxF-10" edge="1">
          <mxGeometry relative="1" as="geometry" />
        </mxCell>
        <mxCell id="n9a9Hprn8gxXcafP9Far-5" style="edgeStyle=orthogonalEdgeStyle;rounded=0;orthogonalLoop=1;jettySize=auto;html=1;exitX=0.75;exitY=0;exitDx=0;exitDy=0;exitPerimeter=0;entryX=0;entryY=0.5;entryDx=0;entryDy=0;dashed=1;" edge="1" parent="1" source="LjqBi-fSDwyMDzPRDfxF-10" target="LjqBi-fSDwyMDzPRDfxF-21">
          <mxGeometry relative="1" as="geometry">
            <Array as="points">
              <mxPoint x="345" y="140" />
              <mxPoint x="420" y="140" />
              <mxPoint x="420" y="108" />
            </Array>
          </mxGeometry>
        </mxCell>
      </root>
    </mxGraphModel>
  </diagram>
</mxfile>
